<svg width="71" height="22" viewBox="0 0 71 22" fill="none" xmlns="http://www.w3.org/2000/svg">
<path d="M8.946 8.068C8.862 7.984 8.706 7.87 8.478 7.726C8.262 7.582 7.992 7.444 7.668 7.312C7.356 7.18 7.014 7.066 6.642 6.97C6.27 6.862 5.892 6.808 5.508 6.808C4.836 6.808 4.326 6.934 3.978 7.186C3.642 7.438 3.474 7.792 3.474 8.248C3.474 8.596 3.582 8.872 3.798 9.076C4.014 9.28 4.338 9.454 4.77 9.598C5.202 9.742 5.742 9.898 6.39 10.066C7.23 10.27 7.956 10.522 8.568 10.822C9.192 11.11 9.666 11.494 9.99 11.974C10.326 12.442 10.494 13.066 10.494 13.846C10.494 14.53 10.368 15.118 10.116 15.61C9.864 16.09 9.516 16.48 9.072 16.78C8.628 17.08 8.124 17.302 7.56 17.446C6.996 17.578 6.396 17.644 5.76 17.644C5.124 17.644 4.488 17.578 3.852 17.446C3.216 17.314 2.604 17.128 2.016 16.888C1.428 16.636 0.888 16.336 0.396 15.988L1.494 13.846C1.602 13.954 1.794 14.098 2.07 14.278C2.346 14.446 2.682 14.62 3.078 14.8C3.474 14.968 3.906 15.112 4.374 15.232C4.842 15.352 5.316 15.412 5.796 15.412C6.468 15.412 6.978 15.298 7.326 15.07C7.674 14.842 7.848 14.518 7.848 14.098C7.848 13.714 7.71 13.414 7.434 13.198C7.158 12.982 6.774 12.796 6.282 12.64C5.79 12.472 5.208 12.292 4.536 12.1C3.732 11.872 3.06 11.62 2.52 11.344C1.98 11.056 1.578 10.696 1.314 10.264C1.05 9.832 0.918 9.292 0.918 8.644C0.918 7.768 1.122 7.036 1.53 6.448C1.95 5.848 2.514 5.398 3.222 5.098C3.93 4.786 4.716 4.63 5.58 4.63C6.18 4.63 6.744 4.696 7.272 4.828C7.812 4.96 8.316 5.134 8.784 5.35C9.252 5.566 9.672 5.8 10.044 6.052L8.946 8.068ZM22.4691 6.898H18.3831V17.5H15.9171V6.898H11.8311V4.72H22.4691V6.898ZM30.0136 17.59C28.9936 17.59 28.1236 17.422 27.4036 17.086C26.6956 16.738 26.1196 16.264 25.6756 15.664C25.2436 15.064 24.9256 14.386 24.7216 13.63C24.5176 12.862 24.4156 12.064 24.4156 11.236V4.72H26.8996V11.236C26.8996 11.764 26.9476 12.28 27.0436 12.784C27.1516 13.276 27.3256 13.72 27.5656 14.116C27.8056 14.512 28.1236 14.824 28.5196 15.052C28.9156 15.28 29.4076 15.394 29.9956 15.394C30.5956 15.394 31.0936 15.28 31.4896 15.052C31.8976 14.812 32.2156 14.494 32.4436 14.098C32.6836 13.702 32.8576 13.258 32.9656 12.766C33.0736 12.262 33.1276 11.752 33.1276 11.236V4.72H35.5936V11.236C35.5936 12.112 35.4856 12.934 35.2696 13.702C35.0656 14.47 34.7356 15.148 34.2796 15.736C33.8356 16.312 33.2596 16.768 32.5516 17.104C31.8436 17.428 30.9976 17.59 30.0136 17.59ZM38.6356 17.5V4.72H43.2796C44.6716 4.72 45.8356 5.008 46.7716 5.584C47.7076 6.148 48.4096 6.916 48.8776 7.888C49.3456 8.848 49.5796 9.916 49.5796 11.092C49.5796 12.388 49.3216 13.516 48.8056 14.476C48.2896 15.436 47.5576 16.18 46.6096 16.708C45.6736 17.236 44.5636 17.5 43.2796 17.5H38.6356ZM47.0776 11.092C47.0776 10.264 46.9276 9.538 46.6276 8.914C46.3276 8.278 45.8956 7.786 45.3316 7.438C44.7676 7.078 44.0836 6.898 43.2796 6.898H41.1196V15.322H43.2796C44.0956 15.322 44.7856 15.142 45.3496 14.782C45.9136 14.41 46.3396 13.906 46.6276 13.27C46.9276 12.622 47.0776 11.896 47.0776 11.092ZM52.0604 17.5V4.72H54.5444V17.5H52.0604ZM63.2048 17.59C62.2688 17.59 61.4168 17.41 60.6488 17.05C59.8928 16.69 59.2388 16.204 58.6868 15.592C58.1468 14.968 57.7268 14.272 57.4268 13.504C57.1268 12.724 56.9768 11.926 56.9768 11.11C56.9768 10.258 57.1328 9.448 57.4448 8.68C57.7688 7.9 58.2068 7.21 58.7588 6.61C59.3228 5.998 59.9828 5.518 60.7388 5.17C61.5068 4.81 62.3468 4.63 63.2588 4.63C64.1828 4.63 65.0228 4.816 65.7788 5.188C66.5468 5.56 67.2008 6.058 67.7408 6.682C68.2808 7.306 68.7008 8.002 69.0008 8.77C69.3008 9.538 69.4508 10.33 69.4508 11.146C69.4508 11.986 69.2948 12.796 68.9828 13.576C68.6708 14.344 68.2328 15.034 67.6688 15.646C67.1168 16.246 66.4568 16.72 65.6888 17.068C64.9328 17.416 64.1048 17.59 63.2048 17.59ZM59.4968 11.11C59.4968 11.662 59.5808 12.196 59.7488 12.712C59.9168 13.228 60.1568 13.69 60.4688 14.098C60.7928 14.494 61.1828 14.812 61.6388 15.052C62.1068 15.28 62.6348 15.394 63.2228 15.394C63.8228 15.394 64.3568 15.274 64.8248 15.034C65.2928 14.782 65.6828 14.452 65.9948 14.044C66.3068 13.624 66.5408 13.162 66.6968 12.658C66.8648 12.142 66.9488 11.626 66.9488 11.11C66.9488 10.558 66.8588 10.03 66.6788 9.526C66.5108 9.01 66.2648 8.554 65.9408 8.158C65.6288 7.75 65.2388 7.432 64.7708 7.204C64.3148 6.964 63.7988 6.844 63.2228 6.844C62.6108 6.844 62.0708 6.97 61.6028 7.222C61.1468 7.462 60.7628 7.786 60.4508 8.194C60.1388 8.602 59.8988 9.058 59.7308 9.562C59.5748 10.066 59.4968 10.582 59.4968 11.11Z" fill="#2E2F42"/>
</svg>
