<svg width="44" height="22" viewBox="0 0 44 22" fill="none" xmlns="http://www.w3.org/2000/svg">
<path d="M5.706 4.756H8.01L9.468 8.986L10.944 4.756H13.23L11.034 10.57L12.654 14.638L16.272 4.72H18.972L13.86 17.5H11.718L9.468 12.136L7.236 17.5H5.094L0 4.72H2.664L6.3 14.638L7.884 10.57L5.706 4.756ZM29.6952 15.322V17.5H20.8212V4.72H29.5332V6.898H23.3052V9.976H28.6872V11.992H23.3052V15.322H29.6952ZM42.4678 14.206C42.4678 14.926 42.2818 15.532 41.9098 16.024C41.5378 16.504 41.0338 16.87 40.3978 17.122C39.7738 17.374 39.0898 17.5 38.3458 17.5H32.1718V4.72H39.0118C39.6118 4.72 40.1278 4.882 40.5598 5.206C41.0038 5.518 41.3398 5.926 41.5678 6.43C41.8078 6.922 41.9278 7.438 41.9278 7.978C41.9278 8.59 41.7718 9.172 41.4598 9.724C41.1478 10.276 40.6918 10.684 40.0918 10.948C40.8238 11.164 41.3998 11.554 41.8198 12.118C42.2518 12.682 42.4678 13.378 42.4678 14.206ZM39.9658 13.738C39.9658 13.414 39.8998 13.126 39.7678 12.874C39.6358 12.61 39.4558 12.406 39.2278 12.262C39.0118 12.106 38.7598 12.028 38.4718 12.028H34.6558V15.394H38.3458C38.6458 15.394 38.9158 15.322 39.1558 15.178C39.4078 15.022 39.6058 14.818 39.7498 14.566C39.8938 14.314 39.9658 14.038 39.9658 13.738ZM34.6558 6.844V10.066H37.9678C38.2438 10.066 38.4958 10 38.7238 9.868C38.9518 9.736 39.1318 9.55 39.2638 9.31C39.4078 9.07 39.4798 8.782 39.4798 8.446C39.4798 8.122 39.4138 7.84 39.2818 7.6C39.1618 7.36 38.9938 7.174 38.7778 7.042C38.5738 6.91 38.3398 6.844 38.0758 6.844H34.6558Z" fill="#4D5AE5"/>
</svg>
